# xmcd
#
# Track frame offsets: 
#        150
#        32147
#        74024
#        133630
#        148246
#        208010
#
# Disc length: 3010 seconds
#
# Revision: 3
# Processed by: cddbd v1.5.1PL0 Copyright (c) Steve Scherf et al.
# Submitted via: ExactAudioCopy v0.95a5
#
DISCID=620bc006
DTITLE=Eric Dolphy - Wherever I Go
DYEAR=2000
DGENRE=
TTITLE0=Jitterbug Waltz
TTITLE1=Music Matador
TTITLE2=Alone Together
TTITLE3=Love Me
TTITLE4=Stormy Weather
TTITLE5=Wherever I Go
EXTD=
EXTT0=
EXTT1=
EXTT2=
EXTT3=
EXTT4=
EXTT5=
PLAYORDER=
